<svg width="375" height="812" viewBox="0 0 375 812" fill="none" xmlns="http://www.w3.org/2000/svg">
  <!-- Background -->
  <rect width="375" height="812" fill="#FAFAFA"/>
  
  <!-- Header -->
  <g id="header">
    <rect y="0" width="375" height="64" fill="#FFFFFF"/>
    <text x="24" y="42" font-family="Inter, sans-serif" font-size="24" font-weight="700" fill="#0F172A">
      Settings
    </text>
    <!-- Settings Icon (Top Right - Active) -->
    <circle cx="335" cy="32" r="18" fill="#DCFCE7"/>
    <circle cx="335" cy="32" r="10" stroke="#10B981" stroke-width="2" fill="none"/>
    <circle cx="335" cy="32" r="3" fill="#10B981"/>
  </g>
  
  <!-- Expense Categories Section -->
  <g id="expense-categories">
    <text x="24" y="96" font-family="Inter, sans-serif" font-size="13" font-weight="600" fill="#64748B">
      EXPENSE CATEGORIES
    </text>
    <rect x="16" y="104" width="343" height="200" rx="12" fill="#FFFFFF"/>
    
    <!-- Category Item 1: Food -->
    <g id="category-food">
      <circle cx="36" cy="130" r="16" fill="#DCFCE7"/>
      <text x="30" y="136" font-family="sans-serif" font-size="16">🍔</text>
      <text x="64" y="135" font-family="Inter, sans-serif" font-size="14" font-weight="500" fill="#0F172A">
        Food
      </text>
      <!-- Edit Icon -->
      <circle cx="313" cy="130" r="12" fill="#F1F5F9"/>
      <path d="M 310 127 L 316 133 M 310 133 L 316 127" stroke="#64748B" stroke-width="1.5" stroke-linecap="round"/>
      <!-- Delete Icon -->
      <circle cx="339" cy="130" r="12" fill="#FEE2E2"/>
      <path d="M 336 127 L 342 133 M 336 133 L 342 127" stroke="#EF4444" stroke-width="1.5" stroke-linecap="round"/>
    </g>
    
    <!-- Category Item 2: Transport -->
    <g id="category-transport">
      <circle cx="36" cy="170" r="16" fill="#DBEAFE"/>
      <text x="30" y="176" font-family="sans-serif" font-size="16">🚗</text>
      <text x="64" y="175" font-family="Inter, sans-serif" font-size="14" font-weight="500" fill="#0F172A">
        Transport
      </text>
      <circle cx="313" cy="170" r="12" fill="#F1F5F9"/>
      <path d="M 310 167 L 316 173 M 310 173 L 316 167" stroke="#64748B" stroke-width="1.5" stroke-linecap="round"/>
      <circle cx="339" cy="170" r="12" fill="#FEE2E2"/>
      <path d="M 336 167 L 342 173 M 336 173 L 342 167" stroke="#EF4444" stroke-width="1.5" stroke-linecap="round"/>
    </g>
    
    <!-- Category Item 3: Bills -->
    <g id="category-bills">
      <circle cx="36" cy="210" r="16" fill="#FEF3C7"/>
      <text x="30" y="216" font-family="sans-serif" font-size="16">📄</text>
      <text x="64" y="215" font-family="Inter, sans-serif" font-size="14" font-weight="500" fill="#0F172A">
        Bills
      </text>
      <circle cx="313" cy="210" r="12" fill="#F1F5F9"/>
      <path d="M 310 207 L 316 213 M 310 213 L 316 207" stroke="#64748B" stroke-width="1.5" stroke-linecap="round"/>
      <circle cx="339" cy="210" r="12" fill="#FEE2E2"/>
      <path d="M 336 207 L 342 213 M 336 213 L 342 207" stroke="#EF4444" stroke-width="1.5" stroke-linecap="round"/>
    </g>
    
    <!-- Category Item 4: Shopping -->
    <g id="category-shopping">
      <circle cx="36" cy="250" r="16" fill="#FEE2E2"/>
      <text x="30" y="256" font-family="sans-serif" font-size="16">🛍️</text>
      <text x="64" y="255" font-family="Inter, sans-serif" font-size="14" font-weight="500" fill="#0F172A">
        Shopping
      </text>
      <circle cx="313" cy="250" r="12" fill="#F1F5F9"/>
      <path d="M 310 247 L 316 253 M 310 253 L 316 247" stroke="#64748B" stroke-width="1.5" stroke-linecap="round"/>
      <circle cx="339" cy="250" r="12" fill="#FEE2E2"/>
      <path d="M 336 247 L 342 253 M 336 253 L 342 247" stroke="#EF4444" stroke-width="1.5" stroke-linecap="round"/>
    </g>
    
    <!-- Add New Category Button -->
    <rect x="24" y="272" width="327" height="24" rx="6" fill="#F1F5F9"/>
    <text x="150" y="289" font-family="Inter, sans-serif" font-size="13" font-weight="500" fill="#10B981">
      + Add Category
    </text>
  </g>
  
  <!-- Income Categories Section -->
  <g id="income-categories">
    <text x="24" y="336" font-family="Inter, sans-serif" font-size="13" font-weight="600" fill="#64748B">
      INCOME CATEGORIES
    </text>
    <rect x="16" y="344" width="343" height="160" rx="12" fill="#FFFFFF"/>
    
    <!-- Category Item 1: Salary -->
    <g id="category-salary">
      <circle cx="36" cy="370" r="16" fill="#DCFCE7"/>
      <text x="30" y="376" font-family="sans-serif" font-size="16">💰</text>
      <text x="64" y="375" font-family="Inter, sans-serif" font-size="14" font-weight="500" fill="#0F172A">
        Salary
      </text>
      <circle cx="313" cy="370" r="12" fill="#F1F5F9"/>
      <path d="M 310 367 L 316 373 M 310 373 L 316 367" stroke="#64748B" stroke-width="1.5" stroke-linecap="round"/>
      <circle cx="339" cy="370" r="12" fill="#FEE2E2"/>
      <path d="M 336 367 L 342 373 M 336 373 L 342 367" stroke="#EF4444" stroke-width="1.5" stroke-linecap="round"/>
    </g>
    
    <!-- Category Item 2: Freelance -->
    <g id="category-freelance">
      <circle cx="36" cy="410" r="16" fill="#DBEAFE"/>
      <text x="30" y="416" font-family="sans-serif" font-size="16">💻</text>
      <text x="64" y="415" font-family="Inter, sans-serif" font-size="14" font-weight="500" fill="#0F172A">
        Freelance
      </text>
      <circle cx="313" cy="410" r="12" fill="#F1F5F9"/>
      <path d="M 310 407 L 316 413 M 310 413 L 316 407" stroke="#64748B" stroke-width="1.5" stroke-linecap="round"/>
      <circle cx="339" cy="410" r="12" fill="#FEE2E2"/>
      <path d="M 336 407 L 342 413 M 336 413 L 342 407" stroke="#EF4444" stroke-width="1.5" stroke-linecap="round"/>
    </g>
    
    <!-- Category Item 3: Gifts -->
    <g id="category-gifts">
      <circle cx="36" cy="450" r="16" fill="#FCE7F3"/>
      <text x="30" y="456" font-family="sans-serif" font-size="16">🎁</text>
      <text x="64" y="455" font-family="Inter, sans-serif" font-size="14" font-weight="500" fill="#0F172A">
        Gifts
      </text>
      <circle cx="313" cy="450" r="12" fill="#F1F5F9"/>
      <path d="M 310 447 L 316 453 M 310 453 L 316 447" stroke="#64748B" stroke-width="1.5" stroke-linecap="round"/>
      <circle cx="339" cy="450" r="12" fill="#FEE2E2"/>
      <path d="M 336 447 L 342 453 M 336 453 L 342 447" stroke="#EF4444" stroke-width="1.5" stroke-linecap="round"/>
    </g>
    
    <!-- Add New Category Button -->
    <rect x="24" y="472" width="327" height="24" rx="6" fill="#F1F5F9"/>
    <text x="150" y="489" font-family="Inter, sans-serif" font-size="13" font-weight="500" fill="#10B981">
      + Add Category
    </text>
  </g>
  
  <!-- Default Options Section -->
  <g id="default-options">
    <text x="24" y="536" font-family="Inter, sans-serif" font-size="13" font-weight="600" fill="#64748B">
      DEFAULT OPTIONS
    </text>
    <rect x="16" y="544" width="343" height="160" rx="12" fill="#FFFFFF"/>
    
    <!-- Default Period -->
    <g id="default-period">
      <text x="32" y="572" font-family="Inter, sans-serif" font-size="14" font-weight="500" fill="#0F172A">
        Default Period
      </text>
      <rect x="32" y="584" width="311" height="36" rx="6" fill="#F8FAFC" stroke="#E2E8F0" stroke-width="1"/>
      <text x="44" y="608" font-family="Inter, sans-serif" font-size="14" fill="#475569">
        Monthly
      </text>
      <path d="M 323 601 L 328 606 L 333 601" stroke="#64748B" stroke-width="2" stroke-linecap="round" stroke-linejoin="round" fill="none"/>
    </g>
    
    <!-- Default Chart Type -->
    <g id="default-chart">
      <text x="32" y="644" font-family="Inter, sans-serif" font-size="14" font-weight="500" fill="#0F172A">
        Default Chart Type
      </text>
      <rect x="32" y="656" width="311" height="36" rx="6" fill="#F8FAFC" stroke="#E2E8F0" stroke-width="1"/>
      <text x="44" y="680" font-family="Inter, sans-serif" font-size="14" fill="#475569">
        Bar Chart
      </text>
      <path d="M 323 673 L 328 678 L 333 673" stroke="#64748B" stroke-width="2" stroke-linecap="round" stroke-linejoin="round" fill="none"/>
    </g>
  </g>
  
  <!-- Bottom Navigation -->
  <g id="bottom-navigation">
    <rect y="744" width="375" height="68" fill="#FFFFFF"/>
    <line x1="0" y1="744" x2="375" y2="744" stroke="#E2E8F0" stroke-width="1"/>
    
    <!-- Home Tab - Left -->
    <g id="tab-home">
      <circle cx="93.75" cy="772" r="12" fill="#F1F5F9"/>
      <path d="M 93.75 767 L 93.75 777 M 88.75 772 L 93.75 767 L 98.75 772" stroke="#64748B" stroke-width="2" stroke-linecap="round" stroke-linejoin="round" fill="none"/>
      <text x="82" y="800" font-family="Inter, sans-serif" font-size="11" fill="#64748B">
        Home
      </text>
    </g>
    
    <!-- Add Button (Center - Prominent) -->
    <g id="tab-add">
      <circle cx="187.5" cy="760" r="28" fill="#10B981"/>
      <path d="M 187.5 748 L 187.5 772 M 175.5 760 L 199.5 760" stroke="#FFFFFF" stroke-width="3" stroke-linecap="round"/>
    </g>
    
    <!-- Charts Tab - Right -->
    <g id="tab-charts">
      <rect x="271.25" y="766" width="20" height="12" rx="2" fill="#CBD5E1"/>
      <rect x="273.25" y="768" width="4" height="8" fill="#64748B"/>
      <rect x="279.25" y="770" width="4" height="6" fill="#64748B"/>
      <rect x="285.25" y="766" width="4" height="10" fill="#64748B"/>
      <text x="267" y="800" font-family="Inter, sans-serif" font-size="11" fill="#64748B">
        Charts
      </text>
    </g>
  </g>
</svg>
